<svg version="1" xmlns="http://www.w3.org/2000/svg" width="1365.333" height="1365.333" viewBox="0 0 1024.000000 1024.000000"><path d="M295.9 112.4c-.2.2-2.9.7-5.9 1-12.7 1.2-29.8 5-43.5 9.8-8.4 2.9-26.1 10.6-29.5 12.8-.8.5-5.1 3.1-9.5 5.7s-8.6 5.3-9.4 6.1c-.8.7-2.6 2.1-4 3-11.2 7.2-29.5 25.3-41.5 40.9-17.7 23.1-32 55-37 82.8-.3 1.6-.8 4.1-1.1 5.5-.3 1.4-.8 5.6-1.2 9.5-1 9-1 435.9-.1 444.5 2.4 20.8 8.6 42.8 17.6 62 4.7 10 12.1 23.3 13.4 23.8.5.2.8.9.8 1.5 0 .7 2.3 4.1 5 7.7 2.7 3.6 6 7.8 7.2 9.5 4.6 6 25.5 26.2 33.3 32.1 28.9 21.9 60.7 34.9 98.5 40.1 7.2 1 437.7 1 445.5 0 10.4-1.3 12.7-1.7 23.5-4.3 36.4-8.7 67.6-26.1 94.6-52.9 21-20.9 34-40.5 45-67.8 4.1-10.2 9.6-28.7 10.8-36.2.3-1.7 1.1-6.2 1.8-10 1-5.6 1.3-50.3 1.3-225 0-119.9-.3-220.9-.8-224.5-.4-3.6-.9-7.9-1.2-9.5-.3-1.7-.7-4.5-1-6.2-.3-1.8-.6-3.5-.6-3.8 0-.2-.6-2.3-1.4-4.5-.8-2.2-1.5-4.4-1.5-4.8-.6-5.4-7.2-23.5-12.8-35.4-4.3-9-16.3-29.4-18.1-30.8-.3-.3-2.8-3.4-5.5-7-6.6-8.8-25.3-27.2-35.1-34.6-22.6-17.2-47.5-29-75.5-35.8-6.9-1.7-8.2-2-14.5-3-2.2-.4-5.6-1-7.5-1.3-3.7-.8-439.4-1.6-440.1-.9z"/></svg>