<svg version="1" xmlns="http://www.w3.org/2000/svg" width="1293.333" height="1293.333" viewBox="0 0 970.000000 970.000000"><path d="M458.9.4c-.2.2-5.6.7-11.9 1-6.3.4-12.2.9-13 1.1-.8.2-4.2.6-7.5 1-43.7 4.5-96.7 19.3-142.5 40-66.5 30-130.1 79.3-175.9 136.5-5.1 6.3-9.8 12.2-10.5 13-2.7 3.4-15.6 22-20.8 30-25.5 39.5-45.6 84-58.6 130-3.2 11.1-8.7 34.1-9.6 40-.3 1.9-1 5.7-1.5 8.5-1.5 8.1-5 35.2-5.8 46-1 13.1-1 63.5 0 74.9 1.6 17.2 1.7 19.1 2.2 22.1.3 1.6.7 5 1.1 7.5 7.3 58.1 29.9 123.5 61.2 177 14.2 24.2 35.7 54.4 51.7 72.5 3.3 3.8 6.5 7.3 7 8 3.5 4 19.4 20.1 27 27.4 39.3 37.5 87.9 70.1 136 91.1 15.6 6.8 15.1 6.6 21.5 9.1 44.1 17.1 93.7 28.4 139.5 31.7 19.8 1.4 77 .6 87.3-1.2 2.4-.5 9.8-1.5 15.7-2.1 48.3-5.6 110.2-25.3 157.1-50 23.7-12.5 53.3-31.2 68.4-43.2 25.2-20 30.8-24.9 47.4-41.2 44.8-44 79.8-94.3 104.5-150.4 5.3-12 7-16.3 14.2-36.2 5.8-15.8 15-49.1 17.5-63.5.3-1.4 1.1-6.1 1.9-10.5 1.4-7.5 3.9-25.1 5-34 2.7-23.6 2.7-83.7 0-102.5-.2-1.4-.6-4.8-1-7.5-1.2-10-1.6-13.2-3.6-25-5.2-30-17.7-74.7-26.6-94.2-1.2-2.8-2.3-5.5-2.3-5.8 0-1.2-6.2-15-13.5-30-14.5-29.7-33.9-60.4-54.9-87-19-23.9-42.7-48.7-62.6-65.6-4.1-3.5-7.7-6.6-8-6.9-1.3-1.6-20.6-16.4-29.5-22.6-68.2-48.1-144.8-77.4-226-86.3-4.9-.6-11.2-1.3-14-1.6-5.9-.7-65.9-1.7-66.6-1.1z"/></svg>